<svg width="800" height="160" viewBox="0 0 800 160" fill="none" xmlns="http://www.w3.org/2000/svg">
<rect width="800" height="160" fill="white"/>
<path d="M7.55334 10.6104H16.2483V57.8985H16.7059C18.6381 53.5256 21.5872 50.068 25.5533 47.5256C29.5194 44.8815 34.5025 43.5595 40.5025 43.5595C50.5703 43.5595 58.4516 47.1188 64.1466 54.2375C69.8415 61.3561 72.6889 71.4239 72.6889 84.4409C72.6889 97.4578 69.8415 107.526 64.1466 114.644C58.4516 121.763 50.5703 125.322 40.5025 125.322C34.5025 125.322 29.5703 124.051 25.7059 121.509C21.8415 118.865 18.8415 115.356 16.7059 110.983H16.2483V123.492H7.55334V10.6104ZM38.5194 117.543C46.35 117.543 52.4516 115.051 56.8245 110.068C61.1974 105.085 63.3838 98.3731 63.3838 89.9324V78.9493C63.3838 70.5087 61.1974 63.7968 56.8245 58.8137C52.4516 53.8307 46.35 51.3392 38.5194 51.3392C35.4686 51.3392 32.5703 51.7968 29.8245 52.712C27.1805 53.5256 24.8415 54.6951 22.8076 56.2205C20.7737 57.7459 19.1466 59.5764 17.9262 61.712C16.8076 63.8476 16.2483 66.1866 16.2483 68.729V99.6951C16.2483 102.441 16.8076 104.932 17.9262 107.17C19.1466 109.305 20.7737 111.187 22.8076 112.814C24.8415 114.339 27.1805 115.509 29.8245 116.322C32.5703 117.136 35.4686 117.543 38.5194 117.543Z" fill="#FF9500"/>
<path d="M91.7901 24.1866C89.7562 24.1866 88.2308 23.6781 87.2138 22.6612C86.2986 21.6442 85.8409 20.3222 85.8409 18.6951V17.1697C85.8409 15.5425 86.2986 14.2205 87.2138 13.2036C88.2308 12.1866 89.7562 11.6781 91.7901 11.6781C93.824 11.6781 95.2986 12.1866 96.2138 13.2036C97.2308 14.2205 97.7393 15.5425 97.7393 17.1697V18.6951C97.7393 20.3222 97.2308 21.6442 96.2138 22.6612C95.2986 23.6781 93.824 24.1866 91.7901 24.1866ZM87.5189 45.39H96.2138V123.492H87.5189V45.39Z" fill="#FF9500"/>
<path d="M130.408 123.492C127.256 123.492 124.866 122.627 123.239 120.898C121.612 119.17 120.798 116.831 120.798 113.882V53.0171H107.222V45.39H116.069C118.205 45.39 119.629 44.9832 120.341 44.1697C121.154 43.2544 121.561 41.6781 121.561 39.4409V23.5764H129.493V45.39H147.188V53.0171H129.493V115.865H145.968V123.492H130.408Z" fill="#FF9500"/>
<path d="M187.315 125.322C176.535 125.322 168.196 121.763 162.298 114.644C156.501 107.526 153.603 97.4578 153.603 84.4409C153.603 71.4239 156.501 61.3561 162.298 54.2375C168.196 47.1188 176.535 43.5595 187.315 43.5595C194.535 43.5595 200.383 45.1358 204.857 48.2883C209.332 51.4409 212.739 55.6103 215.078 60.7968L207.756 64.4578C205.925 60.1866 203.332 56.9324 199.976 54.6951C196.722 52.4578 192.501 51.3392 187.315 51.3392C179.383 51.3392 173.332 53.8815 169.162 58.9663C164.993 64.051 162.908 70.712 162.908 78.9493V89.9324C162.908 98.1697 164.993 104.831 169.162 109.915C173.332 115 179.383 117.543 187.315 117.543C192.705 117.543 197.23 116.373 200.891 114.034C204.552 111.695 207.501 108.339 209.739 103.966L216.145 108.237C213.603 113.424 209.942 117.593 205.162 120.746C200.484 123.797 194.535 125.322 187.315 125.322Z" fill="#FF9500"/>
<path d="M254.477 125.322C249.29 125.322 244.612 124.407 240.443 122.576C236.273 120.746 232.714 118.102 229.765 114.644C226.816 111.085 224.527 106.763 222.9 101.678C221.273 96.5934 220.46 90.8476 220.46 84.4409C220.46 78.0341 221.273 72.3392 222.9 67.3561C224.527 62.2714 226.816 58.0002 229.765 54.5425C232.714 50.9832 236.273 48.2883 240.443 46.4578C244.612 44.5256 249.29 43.5595 254.477 43.5595C259.663 43.5595 264.341 44.5256 268.51 46.4578C272.68 48.2883 276.239 50.9832 279.188 54.5425C282.138 58.0002 284.426 62.2714 286.053 67.3561C287.68 72.3392 288.493 78.0341 288.493 84.4409C288.493 90.8476 287.68 96.5934 286.053 101.678C284.426 106.763 282.138 111.085 279.188 114.644C276.239 118.102 272.68 120.746 268.51 122.576C264.341 124.407 259.663 125.322 254.477 125.322ZM254.477 117.543C262.104 117.543 268.104 115.153 272.477 110.373C276.951 105.593 279.188 98.5764 279.188 89.3222V79.5595C279.188 70.407 276.951 63.4409 272.477 58.6612C268.104 53.7798 262.104 51.3392 254.477 51.3392C246.849 51.3392 240.799 53.729 236.324 58.5087C231.951 63.2883 229.765 70.3053 229.765 79.5595V89.3222C229.765 98.4747 231.951 105.492 236.324 110.373C240.799 115.153 246.849 117.543 254.477 117.543Z" fill="#FF9500"/>
<path d="M307.226 24.1866C305.192 24.1866 303.667 23.6781 302.65 22.6612C301.735 21.6442 301.277 20.3222 301.277 18.6951V17.1697C301.277 15.5425 301.735 14.2205 302.65 13.2036C303.667 12.1866 305.192 11.6781 307.226 11.6781C309.26 11.6781 310.735 12.1866 311.65 13.2036C312.667 14.2205 313.176 15.5425 313.176 17.1697V18.6951C313.176 20.3222 312.667 21.6442 311.65 22.6612C310.735 23.6781 309.26 24.1866 307.226 24.1866ZM302.955 45.39H311.65V123.492H302.955V45.39Z" fill="#FF9500"/>
<path d="M332.421 123.492V45.39H341.116V57.7459H341.573C343.302 53.6781 345.997 50.3222 349.658 47.6781C353.319 44.9324 358.302 43.5595 364.607 43.5595C372.946 43.5595 379.404 46.1527 383.98 51.3392C388.658 56.4239 390.997 63.7459 390.997 73.3053V123.492H382.302V74.8307C382.302 66.8985 380.573 61.0002 377.116 57.1358C373.76 53.2714 368.828 51.3392 362.319 51.3392C359.573 51.3392 356.929 51.6951 354.387 52.407C351.845 53.1188 349.556 54.1866 347.523 55.6103C345.59 57.0341 344.014 58.8646 342.794 61.1019C341.675 63.2375 341.116 65.729 341.116 68.5764V123.492H332.421Z" fill="#FF9500"/>
<path d="M441.077 29.983C438.127 29.983 435.992 29.3729 434.67 28.1525C433.348 26.9322 432.687 25.4068 432.687 23.5763C432.687 22.5593 432.941 20.7797 433.449 18.2373C433.958 15.8983 435.026 13.9661 436.653 12.4407C438.28 10.8136 440.873 10 444.432 10C447.382 10 449.517 10.6102 450.839 11.8305C452.161 13.0508 452.822 14.5763 452.822 16.4068C452.822 17.4237 452.568 19.2034 452.06 21.7458C451.551 24.0847 450.483 26.0678 448.856 27.6949C447.229 29.2203 444.636 29.983 441.077 29.983ZM428.416 123.492C424.551 123.492 421.602 122.525 419.568 120.593C417.534 118.559 416.517 115.966 416.517 112.814C416.517 111.797 416.67 110.525 416.975 109L429.941 44.1695H445.805L432.534 110.22H442.754L440.161 123.492H428.416Z" fill="#00A7A7"/>
<path d="M463.727 44.1695H479.591L476.083 61.8644H476.693C479.947 55.3559 483.506 50.4746 487.371 47.2203C491.337 43.9661 496.371 42.339 502.472 42.339C509.794 42.339 515.439 44.9831 519.405 50.2712C523.371 55.5593 525.354 62.6271 525.354 71.4746C525.354 78.3898 524.489 85.1017 522.761 91.6102C521.032 98.1186 518.489 103.864 515.133 108.847C511.879 113.83 507.913 117.847 503.235 120.898C498.557 123.847 493.269 125.322 487.371 125.322C482.184 125.322 477.71 124 473.947 121.356C470.184 118.712 467.896 115 467.083 110.22H466.32L457.625 154H441.761L463.727 44.1695ZM484.472 111.746C490.269 111.746 494.947 109.966 498.506 106.407C502.066 102.746 504.557 97.4068 505.981 90.3898L508.269 79.2542C508.472 78.0339 508.625 76.7119 508.727 75.2881C508.93 73.7627 509.032 72.339 509.032 71.0169C509.032 66.5424 507.964 62.9322 505.828 60.1864C503.693 57.339 500.439 55.9153 496.066 55.9153C492.913 55.9153 490.066 56.6271 487.523 58.0508C485.083 59.4746 482.896 61.3051 480.964 63.5424C478.828 65.983 476.998 68.6271 475.472 71.4746C474.049 74.322 472.981 77.5254 472.269 81.0847L469.371 95.5763C468.456 100.153 469.269 104.017 471.811 107.169C474.354 110.22 478.574 111.746 484.472 111.746Z" fill="#00A7A7"/>
<path d="M556.19 125.322C549.885 125.322 543.987 124.102 538.495 121.661C533.105 119.22 528.783 115.712 525.529 111.136L535.902 101.678C538.444 105.034 541.343 107.627 544.597 109.458C547.953 111.288 551.919 112.203 556.495 112.203C561.58 112.203 565.495 111.085 568.241 108.847C571.088 106.61 572.512 103.61 572.512 99.8475C572.512 97.7119 571.851 95.8814 570.529 94.3559C569.207 92.7288 566.614 91.5593 562.749 90.8474L555.885 89.6271C549.478 88.5085 544.343 86.3729 540.478 83.2203C536.614 80.0678 534.682 75.2881 534.682 68.8814C534.682 65.4237 535.292 62.1186 536.512 58.9661C537.834 55.7119 539.766 52.8644 542.309 50.4237C544.851 47.983 548.054 46.0508 551.919 44.6271C555.783 43.1017 560.309 42.339 565.495 42.339C577.292 42.339 586.444 46.3559 592.953 54.3898L582.58 63.8475C580.749 61.4068 578.36 59.4237 575.41 57.8983C572.461 56.2712 568.851 55.4576 564.58 55.4576C559.698 55.4576 556.037 56.5254 553.597 58.661C551.258 60.7966 550.088 63.5424 550.088 66.8983C550.088 69.1356 550.749 71.0169 552.071 72.5424C553.495 74.0678 556.088 75.1864 559.851 75.8983L566.715 76.9661C573.326 78.0847 578.512 80.2712 582.275 83.5254C586.037 86.7797 587.919 91.6102 587.919 98.0169C587.919 101.983 587.156 105.644 585.631 109C584.207 112.254 582.122 115.102 579.376 117.542C576.631 119.983 573.275 121.915 569.309 123.339C565.444 124.661 561.071 125.322 556.19 125.322Z" fill="#00A7A7"/>
<path d="M625.051 44.1695L615.441 92.3729C615.136 93.7966 614.881 95.2203 614.678 96.6441C614.576 98.0678 614.526 99.339 614.526 100.458C614.526 104.017 615.288 106.763 616.814 108.695C618.339 110.627 620.881 111.593 624.441 111.593C629.526 111.593 634.051 109.356 638.017 104.881C640.356 102.237 642.288 99.339 643.814 96.1864C645.441 92.9322 646.559 89.7288 647.17 86.5763L655.712 44.1695H671.576L658.305 110.22H668.526L665.932 123.492H653.729C650.17 123.492 647.373 122.576 645.339 120.746C643.407 118.814 642.441 116.22 642.441 112.966C642.441 111.644 642.593 110.119 642.898 108.39L643.204 106.559H642.441C639.492 112.661 636.085 117.339 632.22 120.593C628.356 123.746 623.576 125.322 617.881 125.322C611.373 125.322 606.441 123.441 603.085 119.678C599.831 115.915 598.204 110.678 598.204 103.966C598.204 102.237 598.305 100.508 598.509 98.7797C598.712 97.0508 599.017 95.1695 599.424 93.1356L609.187 44.1695H625.051Z" fill="#00A7A7"/>
<path d="M673.607 123.492L689.472 44.1695H705.336L701.98 61.1017H702.743C705.692 55 709.048 50.3729 712.81 47.2203C716.675 43.9661 721.556 42.339 727.455 42.339C733.251 42.339 737.675 44.0169 740.726 47.3729C743.777 50.6271 745.505 55.2034 745.912 61.1017H746.675C749.522 55.1017 752.929 50.4746 756.895 47.2203C760.963 43.9661 766.048 42.339 772.149 42.339C778.556 42.339 783.336 44.2203 786.488 47.983C789.743 51.6441 791.37 56.7797 791.37 63.3898C791.37 67.0508 790.912 71.0169 789.997 75.2881L782.98 110.22H792.59L789.997 123.492H777.946C774.488 123.492 771.743 122.678 769.709 121.051C767.777 119.322 766.81 116.831 766.81 113.576C766.81 112.254 766.963 110.983 767.268 109.763L774.133 75.2881C774.438 73.7627 774.692 72.2881 774.895 70.8644C775.099 69.4407 775.2 68.1186 775.2 66.8983C775.2 63.4407 774.387 60.7966 772.76 58.9661C771.234 57.0339 768.794 56.0678 765.438 56.0678C760.76 56.0678 756.438 58.3051 752.472 62.7797C750.234 65.2203 748.353 68.0678 746.827 71.322C745.302 74.5763 744.234 77.7288 743.624 80.7797L735.082 123.492H719.217L728.827 75.4407C729.133 73.9152 729.387 72.4407 729.59 71.0169C729.794 69.4915 729.895 68.0678 729.895 66.7458C729.895 63.3898 729.133 60.7966 727.607 58.9661C726.183 57.0339 723.844 56.0678 720.59 56.0678C717.946 56.0678 715.505 56.678 713.268 57.8983C711.031 59.1186 709.048 60.7458 707.319 62.7797C704.98 65.4237 702.997 68.322 701.37 71.4746C699.743 74.6271 698.624 77.7288 698.014 80.7797L689.472 123.492H673.607Z" fill="#00A7A7"/>
</svg>
