<svg width="1920" height="760" viewBox="0 0 1920 760" fill="none" xmlns="http://www.w3.org/2000/svg">
<circle cx="523" cy="460" r="458" stroke="white" stroke-width="4"/>
<circle cx="523" cy="460" r="403.71" stroke="white" stroke-width="4"/>
<path d="M401.434 635.011L380.222 720.217L431.541 732.827L452.753 648.644C466.78 652.393 480.465 655.802 493.808 659.21L472.938 743.052L524.258 755.662L545.47 670.457C633.397 687.157 699.086 680.341 727.14 601.27C749.379 537.537 726.114 500.728 679.926 476.871C713.455 469.032 738.772 447.219 745.615 401.549C754.852 339.52 707.297 305.779 642.292 283.625L663.504 199.443L612.185 186.832L591.657 268.97C577.972 265.562 564.287 262.495 550.26 259.427L570.787 176.948L519.468 164.338L498.256 248.521L394.591 222.959L380.906 277.831C380.906 277.831 419.224 286.693 418.198 287.034C439.068 292.146 442.831 306.12 442.147 316.685L384.327 547.421C381.932 553.896 375.432 563.098 360.72 559.69C361.062 560.372 323.428 550.488 323.428 550.488L297.769 609.109L401.434 635.011ZM627.923 566.166C612.185 629.899 504.414 595.476 469.517 586.956L497.914 474.144C532.469 482.665 644.345 500.047 627.923 566.166ZM643.661 401.208C629.291 459.148 539.654 429.837 510.573 422.339L536.232 320.093C565.313 327.25 659.057 340.542 643.661 401.208Z" stroke="white" stroke-width="4" stroke-miterlimit="10"/>
<path d="M393 462C181.8 462 -99 323.333 -145 254V978H2933V254C2893 323.333 2743.8 462 2467 462C2121 462 1927 210 1525 210C1123 210 865 462 393 462Z" fill="#0FF1FF" fill-opacity="0.25"/>
<path d="M21 462C-190.2 462 -471 323.333 -517 254V978H2561V254C2521 323.333 2371.8 462 2095 462C1749 462 1555 210 1153 210C751 210 493 462 21 462Z" fill="#0FF1FF" fill-opacity="0.25"/>
<g style="mix-blend-mode:multiply" opacity="0.15">
<path d="M715 660C1429 660 1643 314 2247 314V826H-45V444C86.3333 516 422.2 660 715 660Z" fill="#FF9500"/>
</g>
<path d="M999 796C1547.8 796 2003.67 540 2163 412V860H-107V478C33 584 450.2 796 999 796Z" fill="#FFC657"/>
</svg>
