<svg width="64" height="64" viewBox="0 0 64 64" fill="none" xmlns="http://www.w3.org/2000/svg">
<circle cx="32" cy="32" r="30" fill="#FF9500"/>
<path d="M23.0108 44.9411L21.4423 51.2416L25.2371 52.1741L26.8056 45.9492C27.8429 46.2264 28.8548 46.4785 29.8415 46.7305L28.2982 52.9301L32.093 53.8626L33.6615 47.5621C40.1632 48.797 45.0206 48.293 47.095 42.4462C48.7395 37.7334 47.0191 35.0116 43.6038 33.2475C46.0831 32.6679 47.9552 31.055 48.4612 27.6779C49.1442 23.0912 45.6277 20.5962 40.821 18.9581L42.3895 12.7332L38.5947 11.8008L37.0768 17.8744C36.0649 17.6224 35.0529 17.3956 34.0157 17.1688L35.5336 11.0699L31.7388 10.1375L30.1703 16.3623L22.5049 14.4722L21.4929 18.5297C21.4929 18.5297 24.3264 19.1849 24.2505 19.2101C25.7937 19.5881 26.072 20.6214 26.0214 21.4027L21.7459 38.4643C21.5688 38.9431 21.0882 39.6236 20.0003 39.3715C20.0256 39.4219 17.2428 38.6911 17.2428 38.6911L15.3454 43.0258L23.0108 44.9411ZM39.7585 39.8504C38.5947 44.5631 30.6257 42.0177 28.0452 41.3877L30.145 33.0459C32.7002 33.6759 40.9728 34.9612 39.7585 39.8504ZM40.9222 27.6527C39.8597 31.937 33.2314 29.7697 31.0811 29.2152L32.9785 21.6547C35.1288 22.1839 42.0606 23.1668 40.9222 27.6527Z" fill="white"/>
</svg>
